<?xml version="1.0" encoding="UTF-8" standalone="no"?>
<svg width="83px" height="83px" viewBox="0 0 83 83" version="1.1" xmlns="http://www.w3.org/2000/svg" xmlns:xlink="http://www.w3.org/1999/xlink">
    <!-- Generator: Sketch 49 (51002) - http://www.bohemiancoding.com/sketch -->
    <title>check-circle</title>
    <desc>Created with Sketch.</desc>
    <defs></defs>
    <g id="desktop" stroke="none" stroke-width="1" fill="none" fill-rule="evenodd">
        <g id="new-4" transform="translate(-679.000000, -170.000000)" fill="#1DB726">
            <g id="форма" transform="translate(507.000000, 140.000000)">
                <g id="check-circle" transform="translate(172.000000, 30.000000)">
                    <path d="M41.5,83 C18.6169,83 0,64.3817167 0,41.5 C0,18.6169 18.6169,0 41.5,0 C64.3831,0 83,18.6169 83,41.5 C83,64.3817167 64.3831,83 41.5,83 Z M41.5,2.76666667 C20.1427167,2.76666667 2.76666667,20.1427167 2.76666667,41.5 C2.76666667,62.8586667 20.1427167,80.2333333 41.5,80.2333333 C62.8586667,80.2333333 80.2333333,62.8586667 80.2333333,41.5 C80.2333333,20.1427167 62.8586667,2.76666667 41.5,2.76666667 Z M37.5505833,56.2753833 C37.2946667,56.5492833 36.9405333,56.70975 36.5670333,56.7166667 C36.55735,56.7166667 36.5462833,56.7166667 36.5366,56.7166667 C36.1727833,56.7166667 35.8241833,56.5728 35.5655,56.31965 L19.7789,40.7557667 C19.23525,40.2190333 19.2283333,39.3433833 19.7650667,38.8011167 C20.3004167,38.2560833 21.17745,38.2491667 21.7211,38.7859 L36.4937167,53.34825 L61.2374,26.726 C61.7575333,26.1643667 62.6318,26.1339333 63.19205,26.6540667 C63.7509167,27.1742 63.7827333,28.0484667 63.2626,28.6087167 L37.5505833,56.2753833 Z" id="Shape"></path>
                </g>
            </g>
        </g>
    </g>
</svg>